<svg xmlns="http://www.w3.org/2000/svg" width="249.001" height="115" viewBox="0 0 249.001 115">
  <g id="Group_35" data-name="Group 35" transform="translate(-662.999 -906)">
    <path id="Subtraction_4" data-name="Subtraction 4" d="M-7475.471,1619.243h0l-14.713-8.426,14.091-9.433.13,3.677a23.882,23.882,0,0,0,5.124,1.192,25.467,25.467,0,0,0,2.95.175,23.688,23.688,0,0,0,5.316-.6,18.145,18.145,0,0,0,4.006-1.372,9.88,9.88,0,0,0,2.656-1.85,5.285,5.285,0,0,0,1.344-2.179,4.552,4.552,0,0,0,.068-2.348,4.941,4.941,0,0,0-1.592-2.677,10.188,10.188,0,0,0-3.068-1.769,27.219,27.219,0,0,0-4.274-1.2c-1.59-.325-3.3-.635-5.213-.947-4.71-.8-8.471-2.266-11.175-4.361a14.828,14.828,0,0,1-5.35-8.67,15.445,15.445,0,0,1,.021-7.818,15.2,15.2,0,0,1,3.542-6.2,21.846,21.846,0,0,1,6.239-4.545,36.715,36.715,0,0,1,8.106-2.865,51.821,51.821,0,0,1,7.769-1.246c.841-.06,1.676-.091,2.479-.091a29.445,29.445,0,0,1,3.71.228l-.4-2.857,15.518,6.842-13.031,10.856-.53-3.778c-.625-.19-1.293-.357-1.985-.494a24.9,24.9,0,0,0-3.652-.434c-.411-.018-.824-.027-1.226-.027-.808,0-1.611.037-2.389.11a25.439,25.439,0,0,0-3.309.521,17.667,17.667,0,0,0-3.762,1.293,10.236,10.236,0,0,0-2.666,1.814,5.824,5.824,0,0,0-1.445,2.181,4.281,4.281,0,0,0-.126,2.444,4.506,4.506,0,0,0,1.307,2.316,8.654,8.654,0,0,0,2.562,1.6,22.766,22.766,0,0,0,3.72,1.171c1.439.335,3.056.651,4.8.94a50.231,50.231,0,0,1,6.634,1.573,21.813,21.813,0,0,1,5.342,2.481,14.144,14.144,0,0,1,3.927,3.822,16.369,16.369,0,0,1,2.359,5.647,16.213,16.213,0,0,1,.038,8.17,14.679,14.679,0,0,1-3.583,6.186,21.331,21.331,0,0,1-6.35,4.408,41.745,41.745,0,0,1-8.224,2.791,48.219,48.219,0,0,1-8.831,1.228c-.488.02-.973.03-1.442.03a26.34,26.34,0,0,1-5.526-.543l.1,3.038Zm9.976-9.591-8.978.628.141,1.995,8.978-.628-.141-1.994Zm11.36-4.094h0l-5.937,3.709,1.058,1.7,5.937-3.711-1.058-1.7Zm5.919-8.322h0l-2.4,6.577,1.88.684,2.393-6.577-1.878-.684Zm-6.457-8.675h0l-.938,1.767,7.063,3.756.94-1.765-7.064-3.758Zm-11.185-5.079h0l-.814,1.825,7.309,3.254.814-1.827-7.309-3.252Zm-9.643-4h0l-.814,1.827,7.309,3.254.814-1.827-7.309-3.254Zm-3.728-8.581-1.957.417,1.664,7.824,1.957-.415-1.664-7.826Zm6.711-7.143h0l-6.857,4.12,1.03,1.714,6.857-4.12-1.03-1.714Zm10.367-3.021h0l-7.764,1.934.485,1.942,7.761-1.936-.482-1.94Zm10.5-.34-7.995.278.069,2,7.995-.28-.069-2Z" transform="translate(8228.195 -617.385)" fill="#fff" stroke="rgba(0,0,0,0)" stroke-width="1"/>
    <g id="Group_15" data-name="Group 15" transform="translate(663 939.732)">
      <path id="Subtraction_3" data-name="Subtraction 3" d="M-8145,670.269h-19V648.164h25.194v7.1l22.808-15-22.808-15v6.843H-8164V610.267h19a29.808,29.808,0,0,1,11.677,2.358,29.892,29.892,0,0,1,9.536,6.429,29.905,29.905,0,0,1,6.43,9.536A29.814,29.814,0,0,1-8115,640.267a29.819,29.819,0,0,1-2.357,11.678,29.9,29.9,0,0,1-6.43,9.537,29.891,29.891,0,0,1-9.536,6.43A29.808,29.808,0,0,1-8145,670.269Z" transform="translate(8164 -610)" fill="#fff"/>
    </g>
    <text id="I" transform="translate(712 999)" fill="#fff" stroke="rgba(0,0,0,0)" stroke-width="1" font-size="85" font-family="SegoeUI-Bold, Segoe UI" font-weight="700"><tspan x="0" y="0">I</tspan></text>
    <text id="H" transform="translate(789 999)" fill="#fff" stroke="rgba(0,0,0,0)" stroke-width="1" font-size="85" font-family="SegoeUI-Bold, Segoe UI" font-weight="700"><tspan x="0" y="0">H</tspan></text>
    <text id="A" transform="translate(851 999)" fill="#fff" stroke="rgba(0,0,0,0)" stroke-width="1" font-size="85" font-family="SegoeUI-Bold, Segoe UI" font-weight="700"><tspan x="0" y="0">A</tspan></text>
  </g>
</svg>
